<svg width="15" height="14" viewBox="0 0 15 14" fill="none" xmlns="http://www.w3.org/2000/svg">
<path id="Subtract" d="M7.54331 0.199951C5.69653 0.199951 5.46476 0.208026 4.73942 0.241035C4.01549 0.274185 3.52135 0.388793 3.08898 0.556951C2.64174 0.730635 2.26235 0.962968 1.88438 1.34108C1.50613 1.71904 1.27379 2.09843 1.09954 2.54553C0.930953 2.97803 0.816201 3.47231 0.783618 4.19594C0.751176 4.92128 0.742676 5.15318 0.742676 6.99995C0.742676 8.84672 0.750893 9.07778 0.78376 9.80311C0.817052 10.527 0.931661 11.0212 1.09968 11.4535C1.27351 11.9008 1.50584 12.2802 1.88395 12.6581C2.26178 13.0364 2.64117 13.2693 3.08813 13.443C3.52079 13.6111 4.01507 13.7257 4.73885 13.7589C5.46419 13.7919 5.69582 13.8 7.54246 13.8C9.38939 13.8 9.62045 13.7919 10.3458 13.7589C11.0697 13.7257 11.5644 13.6111 11.9971 13.443C12.4442 13.2693 12.823 13.0364 13.2008 12.6581C13.5791 12.2802 13.8114 11.9008 13.9857 11.4537C14.1528 11.0212 14.2676 10.5269 14.3016 9.80325C14.3342 9.07792 14.3427 8.84672 14.3427 6.99995C14.3427 5.15318 14.3342 4.92142 14.3016 4.19608C14.2676 3.47217 14.1528 2.97803 13.9857 2.54567C13.8114 2.09843 13.5791 1.71904 13.2008 1.34108C12.8226 0.962826 12.4443 0.730493 11.9967 0.556951C11.5631 0.388793 11.0687 0.274185 10.3448 0.241035C9.61946 0.208026 9.38854 0.199951 7.54119 0.199951H7.54331ZM6.93329 1.42537C7.11434 1.42508 7.31636 1.42537 7.54331 1.42537C9.35893 1.42537 9.57413 1.43188 10.2911 1.46447C10.9541 1.49478 11.314 1.60557 11.5537 1.69864C11.871 1.82189 12.0972 1.96923 12.3351 2.20723C12.5731 2.44523 12.7204 2.67189 12.844 2.98923C12.937 3.22864 13.048 3.58848 13.0781 4.25148C13.1107 4.96831 13.1178 5.18364 13.1178 6.99839C13.1178 8.81314 13.1107 9.02848 13.0781 9.74531C13.0478 10.4083 12.937 10.7681 12.844 11.0076C12.7207 11.3249 12.5731 11.5509 12.3351 11.7887C12.0971 12.0267 11.8711 12.174 11.5537 12.2973C11.3142 12.3908 10.9541 12.5013 10.2911 12.5316C9.57427 12.5642 9.35893 12.5713 7.54331 12.5713C5.72755 12.5713 5.51236 12.5642 4.79552 12.5316C4.13251 12.501 3.77267 12.3902 3.53283 12.2972C3.21549 12.1739 2.98882 12.0266 2.75082 11.7886C2.51282 11.5506 2.36548 11.3245 2.24195 11.007C2.14887 10.7676 2.03795 10.4077 2.00777 9.74474C1.97519 9.02791 1.96867 8.81258 1.96867 6.99669C1.96867 5.18081 1.97519 4.96661 2.00777 4.24978C2.03809 3.58678 2.14887 3.22694 2.24195 2.98724C2.3652 2.66991 2.51282 2.44324 2.75082 2.20524C2.98882 1.96724 3.21549 1.81991 3.53283 1.69638C3.77253 1.60288 4.13251 1.49238 4.79552 1.46192C5.42282 1.43358 5.66593 1.42508 6.93329 1.42367V1.42537ZM11.1731 2.55445C10.7226 2.55445 10.3571 2.91953 10.3571 3.37017C10.3571 3.82067 10.7226 4.18617 11.1731 4.18617C11.6236 4.18617 11.9891 3.82067 11.9891 3.37017C11.9891 2.91967 11.6236 2.55417 11.1731 2.55417V2.55445ZM7.54331 3.50787C5.61478 3.50787 4.05119 5.07144 4.05119 6.99995C4.05119 8.92846 5.61478 10.4913 7.54331 10.4913C9.47184 10.4913 11.0349 8.92846 11.0349 6.99995C11.0349 5.07144 9.4717 3.50787 7.54317 3.50787H7.54331ZM7.54331 4.73328C8.79509 4.73328 9.81 5.74804 9.81 6.99995C9.81 8.25172 8.79509 9.26662 7.54331 9.26662C6.29139 9.26662 5.27662 8.25172 5.27662 6.99995C5.27662 5.74804 6.29139 4.73328 7.54331 4.73328Z" fill="#838888"/>
</svg>
