<svg width="33" height="33" viewBox="0 0 33 33" fill="none" xmlns="http://www.w3.org/2000/svg">
<g clip-path="url(#clip0_160_489)">
<path d="M17.3666 13.8333C16.2666 10.7267 13.3133 8.5 9.83325 8.5C5.41325 8.5 1.83325 12.08 1.83325 16.5C1.83325 20.92 5.41325 24.5 9.83325 24.5C13.3133 24.5 16.2666 22.2733 17.3666 19.1667H23.1666V24.5H28.4999V19.1667H31.1666V13.8333H17.3666ZM9.83325 19.1667C8.35992 19.1667 7.16659 17.9733 7.16659 16.5C7.16659 15.0267 8.35992 13.8333 9.83325 13.8333C11.3066 13.8333 12.4999 15.0267 12.4999 16.5C12.4999 17.9733 11.3066 19.1667 9.83325 19.1667Z" fill="white"/>
</g>
<defs>
<clipPath id="clip0_160_489">
<rect width="32" height="32" fill="white" transform="translate(0.5 0.5)"/>
</clipPath>
</defs>
</svg>
