<svg width="13" height="12" viewBox="0 0 13 12" fill="none" xmlns="http://www.w3.org/2000/svg">
<path id="Subtract" fill-rule="evenodd" clip-rule="evenodd" d="M11.0502 3.43867C11.0544 3.55081 11.0559 3.66291 11.0559 3.77505C11.0559 7.17505 8.71727 11.1001 4.44081 11.1001C3.12716 11.1001 1.90565 10.672 0.876465 9.94302C1.05839 9.96341 1.24316 9.97873 1.43075 9.97873C2.51995 9.97873 3.52315 9.56575 4.3189 8.8725C3.30153 8.85721 2.44246 8.10788 2.14618 7.08839C2.28841 7.11898 2.43489 7.13432 2.58468 7.13432C2.79591 7.13432 3.00099 7.10377 3.19756 7.0426C2.13293 6.80811 1.33105 5.76826 1.33105 4.51938C1.33105 4.50409 1.33105 4.49897 1.33105 4.48877C1.64481 4.67738 2.00394 4.79456 2.38527 4.80985C1.76058 4.34598 1.34994 3.5559 1.34994 2.66384C1.34994 2.19488 1.46429 1.75138 1.66559 1.36907C2.81197 2.92889 4.52587 3.95349 6.45808 4.06054C6.41839 3.87193 6.39806 3.67318 6.39806 3.47438C6.39806 2.05219 7.43905 0.900146 8.72341 0.900146C9.39205 0.900146 9.99595 1.21114 10.4198 1.71069C10.9505 1.59854 11.4476 1.38446 11.8974 1.08881C11.7231 1.69031 11.355 2.19485 10.8739 2.5109C11.3446 2.44973 11.7935 2.3122 12.2098 2.1083C11.8975 2.62314 11.5043 3.07675 11.0502 3.43867Z" fill="#858888"/>
</svg>
