<svg width="24" height="24" viewBox="0 0 24 24" fill="none" xmlns="http://www.w3.org/2000/svg">
<g id="Iconly/Bold/Profile">
<g id="Profile">
<path id="Profile_2" fill-rule="evenodd" clip-rule="evenodd" d="M17.2538 7.40036C17.2538 10.3829 14.9027 12.8007 12.0025 12.8007C9.1023 12.8007 6.75121 10.3829 6.75121 7.40036C6.75121 4.41782 9.1023 2 12.0025 2C14.9027 2 17.2538 4.41782 17.2538 7.40036ZM16.5098 15.8434C18.1795 16.1815 19.2696 16.7331 19.7367 17.6228C20.0876 18.3171 20.0876 19.1437 19.7367 19.8381C19.2696 20.7278 18.2228 21.3149 16.4925 21.6174C15.7215 21.7729 14.9411 21.874 14.1567 21.9199C13.43 22 12.7033 22 11.9679 22H10.6443C10.3674 21.9644 10.0992 21.9466 9.83971 21.9466C9.05527 21.9063 8.27466 21.8082 7.50387 21.653C5.83418 21.3327 4.74412 20.7633 4.27695 19.8737C4.09661 19.529 4.00153 19.144 4.00011 18.7527C3.99635 18.3589 4.08855 17.9705 4.2683 17.6228C4.72682 16.7331 5.81687 16.1548 7.50387 15.8434C8.27806 15.6915 9.06133 15.5934 9.84836 15.5498C11.288 15.4338 12.7343 15.4338 14.174 15.5498C14.958 15.5955 15.7382 15.6936 16.5098 15.8434Z" fill="#868AA5"/>
</g>
</g>
</svg>
