<svg width="34" height="34" viewBox="0 0 34 34" fill="none" xmlns="http://www.w3.org/2000/svg">
<g id="Iconly/Bold/Profile">
<g id="Profile">
<path id="Profile_2" fill-rule="evenodd" clip-rule="evenodd" d="M24.7243 11.1755C24.7243 15.2765 21.4915 18.601 17.5037 18.601C13.5159 18.601 10.2832 15.2765 10.2832 11.1755C10.2832 7.0745 13.5159 3.75 17.5037 3.75C21.4915 3.75 24.7243 7.0745 24.7243 11.1755ZM23.7013 22.7847C25.9971 23.2496 27.4959 24.008 28.1383 25.2313C28.6207 26.1861 28.6207 27.3226 28.1383 28.2774C27.4959 29.5007 26.0566 30.3081 23.6775 30.724C22.6173 30.9377 21.5442 31.0767 20.4657 31.1399C19.4665 31.25 18.4672 31.25 17.4561 31.25H15.6361C15.2555 31.2011 14.8867 31.1766 14.5298 31.1766C13.4512 31.1211 12.3779 30.9862 11.3181 30.7729C9.02224 30.3325 7.52341 29.5496 6.88105 28.3263C6.63308 27.8524 6.50235 27.3231 6.5004 26.7849C6.49523 26.2435 6.622 25.7094 6.86916 25.2313C7.49962 24.008 8.99845 23.2129 11.3181 22.7847C12.3826 22.5758 13.4596 22.4409 14.5417 22.381C16.5213 22.2215 18.5099 22.2215 20.4895 22.381C21.5674 22.4438 22.6403 22.5787 23.7013 22.7847Z" fill="white"/>
</g>
</g>
</svg>
